<svg width="100" height="21" viewBox="0 0 100 21" fill="none"
    xmlns="http://www.w3.org/2000/svg">
    <path class="line-stroke" d="M0.546781 18H15.5228V14.736H4.67478V1.2H0.546781V18Z" stroke="black"
        stroke-width="1" fill="black" />
    <path class="line-stroke"
        d="M27.0424 18.264C33.7864 18.264 37.7944 14.928 37.7944 9.624C37.7944 4.272 33.7864 0.935999 27.0424 0.935999C20.2744 0.935999 16.2904 4.272 16.2904 9.624C16.2904 14.928 20.2744 18.264 27.0424 18.264ZM27.0424 15C22.6984 15 20.5144 13.08 20.5144 9.624C20.5144 6.144 22.6984 4.2 27.0424 4.2C31.3864 4.2 33.5464 6.144 33.5464 9.624C33.5464 13.08 31.3864 15 27.0424 15Z"
        stroke="black" stroke-width="1" fill="black" />
    <path class="line-stroke"
        d="M40.2201 9.624C40.2201 14.952 44.0841 18.264 50.5401 18.264C54.0441 18.264 56.4441 17.184 57.8841 15.24L58.2201 18H61.2441V8.976H50.7801V11.928H57.1641C56.5881 13.92 54.5721 15 51.0681 15C46.6761 15 44.4441 13.104 44.4441 9.624C44.4441 6.12 46.7001 4.2 51.0921 4.2C54.3321 4.2 56.1561 5.232 56.7801 7.152L60.9321 6.264C59.8761 2.784 56.5401 0.935999 51.0921 0.935999C44.2761 0.935999 40.2201 4.248 40.2201 9.624Z"
        stroke="black" stroke-width="1" fill="black" />
    <path class="line-stroke"
        d="M74.9955 18.264C81.7395 18.264 85.7475 14.928 85.7475 9.624C85.7475 4.272 81.7395 0.935999 74.9955 0.935999C68.2275 0.935999 64.2435 4.272 64.2435 9.624C64.2435 14.928 68.2275 18.264 74.9955 18.264ZM74.9955 15C70.6515 15 68.4675 13.08 68.4675 9.624C68.4675 6.144 70.6515 4.2 74.9955 4.2C79.3395 4.2 81.4995 6.144 81.4995 9.624C81.4995 13.08 79.3395 15 74.9955 15Z"
        stroke="black" stroke-width="1" fill="black" />
</svg>