<svg width="118" height="118" viewBox="0 0 118 118" fill="none" xmlns="http://www.w3.org/2000/svg">
<path d="M53.0856 113.588C51.4153 113.408 50.8287 113.139 50.6932 112.605L48.2407 112.739C48.6001 114.105 49.9594 114.819 52.9301 115.14C56.0082 115.472 57.7542 114.84 57.9061 113.432C58.04 112.191 57.0278 111.394 54.4372 111.018L51.9778 110.656C51.0869 110.524 50.8492 110.377 50.8814 110.079C50.92 109.721 51.6287 109.641 53.6212 109.856C55.0767 110.013 55.7907 110.331 55.9198 110.925L58.4558 110.8C58.0589 109.333 56.7619 108.602 53.7673 108.278C50.2835 107.902 48.5257 108.533 48.357 110.096C48.2282 111.289 49.1686 111.97 51.6492 112.359L54.0979 112.707L54.4481 112.764C55.2471 112.905 55.4865 113.038 55.4581 113.301C55.4182 113.671 54.744 113.767 53.0856 113.588ZM47.1816 107.473L44.7928 106.633L43.9614 109C43.488 110.347 42.1753 110.789 40.4431 110.18C39.2204 109.75 38.7887 108.988 39.1467 107.969L40.1849 105.014L37.7961 104.175L36.5908 107.605C35.9185 109.519 36.7453 110.967 39.0209 111.766C40.4927 112.283 41.9516 112.185 43.0544 111.581L41.8093 115.124L44.1982 115.964L47.1816 107.473ZM31.9803 100.471C29.0455 98.5565 26.7621 98.5427 25.5492 100.402C24.3494 102.241 25.2892 104.359 28.2039 106.26C31.1086 108.155 33.4453 108.175 34.6451 106.335C35.8449 104.496 34.8849 102.366 31.9803 100.471ZM30.9706 102.019C32.629 103.1 33.0839 103.985 32.4741 104.919C31.8644 105.854 30.872 105.794 29.2136 104.712C27.5552 103.63 27.1104 102.753 27.7202 101.818C28.3299 100.883 29.3123 100.937 30.9706 102.019ZM24.6914 94.7947L23.2304 93.1232L18.5123 94.235L20.2531 89.717L18.8 88.0546L11.6589 89.9135L13.3806 91.8832L17.6156 90.6199L16.0104 94.8918L17.5346 96.6356L21.9491 95.4864L20.1566 99.6352L21.9651 101.704L24.6914 94.7947ZM16.1564 84.6418L14.9876 82.3957L12.9544 83.4537C11.7196 84.0963 10.4806 83.4829 9.59431 81.7798C9.38382 81.3752 9.22144 80.9592 9.14596 80.6062L7.02077 81.6174C7.06041 81.7456 7.14991 81.9696 7.22192 82.1079C7.97527 83.5557 9.23014 84.4854 10.5866 84.7264L9.23261 85.6339L10.3017 87.6884L16.1564 84.6418ZM11.377 72.5529C10.4987 69.4966 9.49796 68.2734 8.0274 68.1091L8.3033 70.6768C8.81276 70.7552 9.25063 71.4534 9.70469 73.0334C10.1753 74.6712 10.0812 75.6471 9.40777 76.1278L7.18389 68.389C6.9515 68.4058 6.76365 68.4473 6.47532 68.5302C4.48007 69.1036 3.85226 71.394 4.75706 74.5426C5.68838 77.7835 7.52205 79.3416 9.56343 78.755C11.6625 78.1518 12.3282 75.8629 11.377 72.5529ZM6.35687 74.0704C5.9227 72.5595 5.97412 71.6957 6.60633 71.2019L8.11764 76.4611C7.34279 76.3716 6.80761 75.6389 6.35687 74.0704ZM9.53974 61.1411C9.39508 57.9644 8.70567 56.5423 7.31343 56.0411L6.98562 58.6026C7.46296 58.7971 7.72675 59.5779 7.80154 61.2202C7.87905 62.9225 7.56091 63.8499 6.79428 64.1611L6.42799 56.1174C6.19804 56.0799 6.0057 56.0766 5.70601 56.0903C3.63216 56.1847 2.48969 58.2668 2.63871 61.5394C2.79211 64.9079 4.21389 66.8493 6.33569 66.7526C8.51743 66.6533 9.6964 64.5815 9.53974 61.1411ZM4.30444 61.4516C4.23293 59.8812 4.48351 59.0529 5.2131 58.7194L5.46202 64.1857C4.72912 63.9188 4.37868 63.0819 4.30444 61.4516ZM9.54145 51.883L0.602134 50.8396L0.308594 53.3546L9.24791 54.398L9.54145 51.883ZM8.89392 36.5372L9.08429 36.1277C9.66739 34.9193 10.0725 34.5341 10.5696 34.5672L11.2028 32.1941C9.79225 32.1122 8.69208 33.1831 7.46631 35.9081C6.19623 38.7316 6.25614 40.5876 7.54751 41.1685C8.68566 41.6804 9.75743 40.9651 10.9181 38.6188L12.0247 36.3928C12.4268 35.5868 12.6396 35.4062 12.9132 35.5293C13.2415 35.6769 13.0982 36.3757 12.2761 38.2033C11.6755 39.5384 11.1515 40.1185 10.5474 40.0573L9.87967 42.507C11.3975 42.5845 12.4949 41.5781 13.7305 38.8312C15.168 35.6356 15.113 33.7687 13.6794 33.1239C12.585 32.6316 11.6462 33.3146 10.5079 35.5526L9.41718 37.7726L9.25436 38.0877C8.87282 38.8038 8.67278 38.9904 8.43137 38.8818C8.09212 38.7292 8.20966 38.0583 8.89392 36.5372ZM16.5263 32.8296L18.0624 30.8167L16.0686 29.2952C14.9334 28.4289 14.9186 27.0439 16.0324 25.5844C16.8186 24.5541 17.6769 24.3789 18.5355 25.0341L21.0253 26.9341L22.5613 24.9213L19.6709 22.7155C18.0587 21.4852 16.4262 21.8244 14.9629 23.7418C14.0165 24.9819 13.6591 26.3998 13.8936 27.6354L10.9077 25.3568L9.37164 27.3696L16.5263 32.8296ZM27.8659 20.5241C30.5875 18.3171 31.3002 16.1477 29.9019 14.4234C28.5187 12.7178 26.2152 12.9636 23.5123 15.1555C20.8186 17.3399 20.0837 19.5581 21.4669 21.2637C22.8501 22.9694 25.1722 22.7085 27.8659 20.5241ZM26.7019 19.0887C25.164 20.3359 24.183 20.4979 23.4801 19.6311C22.7772 18.7643 23.1384 17.838 24.6762 16.5909C26.2141 15.3437 27.1858 15.1892 27.8887 16.056C28.5916 16.9228 28.2398 17.8416 26.7019 19.0887ZM35.5226 15.3223L37.5629 14.4474L37.9588 9.61625L41.7207 12.6643L43.75 11.7941L44.1816 4.42769L41.7773 5.45874L41.6744 9.87696L38.1048 7.03368L35.9763 7.94649L35.7094 12.5003L32.3147 9.51671L29.7892 10.5998L35.5226 15.3223ZM47.7946 10.3399L50.2923 9.92501L49.9168 7.66399C49.6887 6.2908 50.6559 5.30297 52.55 4.98838C52.9998 4.91367 53.4457 4.88827 53.8047 4.92595L53.5022 2.59198C53.3681 2.58993 53.1274 2.60558 52.9735 2.63114C51.3635 2.89854 50.0906 3.80334 49.4409 5.01822L48.9979 3.4496L46.7132 3.82908L47.7946 10.3399ZM60.7839 9.52239C63.9622 9.62557 65.4337 9.04901 66.0418 7.70003L63.5135 7.17372C63.2825 7.63446 62.4835 7.83665 60.8404 7.78331C59.1372 7.72802 58.2374 7.33862 57.9869 6.55007L66.0346 6.81133C66.09 6.58501 66.1082 6.3935 66.118 6.09365C66.1853 4.01875 64.1985 2.7176 60.9242 2.6113C57.554 2.50189 55.5078 3.76817 55.4389 5.89105C55.368 8.0739 57.3417 9.41065 60.7839 9.52239ZM60.8821 4.27881C62.4533 4.32982 63.2595 4.64414 63.5352 5.39749L58.0661 5.21994C58.3893 4.51005 59.2509 4.22586 60.8821 4.27881ZM72.2025 11.2805C75.2701 12.1184 76.8352 11.899 77.7397 10.7279L75.4026 9.62931C75.0709 10.0239 74.2468 10.0351 72.6609 9.602C71.0171 9.15305 70.2322 8.56549 70.1715 7.74033L77.939 9.86178C78.0453 9.65448 78.1075 9.47243 78.1865 9.18303C78.7335 7.18037 77.1028 5.45373 73.9426 4.59061C70.6897 3.70219 68.4056 4.45914 67.846 6.5081C67.2705 8.61493 68.8802 10.3731 72.2025 11.2805ZM73.5147 6.20284C75.0311 6.61701 75.7424 7.10982 75.8358 7.90658L70.5571 6.46488C71.0362 5.84936 71.9403 5.77286 73.5147 6.20284ZM81.0219 14.1414L84.7859 5.96632L82.486 4.90738L78.722 13.0825L81.0219 14.1414ZM95.7923 18.2498L96.1233 18.5569C97.0937 19.4836 97.3355 19.9876 97.1511 20.4503L99.2142 21.783C99.7262 20.4661 99.0457 19.0898 96.83 17.085C94.5343 15.0078 92.75 14.4938 91.7999 15.5437C90.9626 16.4692 91.3134 17.709 93.1888 19.5354L94.9663 21.2731C95.6095 21.9037 95.7159 22.1617 95.5146 22.3842C95.2731 22.6511 94.6523 22.2998 93.1663 20.9553C92.0807 19.973 91.6901 19.2959 91.9341 18.74L89.8087 17.3509C89.268 18.7713 89.8879 20.1251 92.1213 22.146C94.7196 24.4969 96.5128 25.019 97.5676 23.8533C98.3727 22.9635 98.0117 21.8601 96.2325 20.0884L94.4558 18.3676L94.206 18.1157C93.6421 17.5323 93.5261 17.2846 93.7037 17.0883C93.9533 16.8125 94.5554 17.1307 95.7923 18.2498ZM96.9783 26.6584L98.4232 28.7376L100.483 27.3065C101.655 26.4916 102.978 26.9021 104.026 28.4099C104.765 29.4741 104.669 30.3448 103.782 30.9611L101.21 32.7484L102.655 34.8276L105.641 32.7528C107.306 31.5955 107.484 29.9377 106.108 27.9569C105.217 26.6759 103.978 25.9009 102.73 25.7452L105.814 23.6019L104.369 21.5226L96.9783 26.6584ZM105.209 41.244C106.468 44.514 108.311 45.8617 110.383 45.064C112.432 44.2749 112.909 42.008 111.659 38.7604C110.413 35.524 108.53 34.1402 106.481 34.9292C104.431 35.7183 103.962 38.0076 105.209 41.244ZM106.933 40.58C106.222 38.7322 106.37 37.7491 107.412 37.3481C108.453 36.9471 109.223 37.5767 109.934 39.4244C110.646 41.2722 110.493 42.2441 109.451 42.6451C108.41 43.0461 107.645 42.4278 106.933 40.58ZM107.784 50.1095L107.985 52.3204L112.456 54.1917L108.394 56.8259L108.594 59.0248L115.465 61.7145L115.228 59.1092L111.059 57.6443L114.867 55.1296L114.658 52.8231L110.41 51.1604L114.297 48.8554L114.049 46.1186L107.784 50.1095ZM108.738 63.3393L108.369 65.8443L110.636 66.178C112.014 66.3807 112.658 67.6036 112.379 69.5032C112.313 69.9543 112.2 70.3866 112.055 70.7169L114.369 71.1424C114.412 71.0153 114.471 70.7814 114.494 70.6271C114.731 69.0124 114.259 67.5238 113.301 66.5338L114.93 66.5916L115.267 64.3002L108.738 63.3393ZM105.527 75.9356C104.447 78.9267 104.541 80.5043 105.636 81.4993L106.918 79.2571C106.551 78.895 106.605 78.0726 107.163 76.5263C107.742 74.9235 108.39 74.1878 109.217 74.193L106.484 81.7668C106.682 81.8894 106.859 81.9659 107.141 82.0677C109.094 82.7725 110.945 81.2845 112.057 78.2031C113.201 75.0313 112.629 72.6941 110.631 71.9731C108.577 71.2317 106.696 72.6961 105.527 75.9356ZM110.484 77.6481C109.95 79.1267 109.402 79.7965 108.601 79.8261L110.458 74.6791C111.034 75.2057 111.038 76.113 110.484 77.6481ZM100.333 86.2501C98.588 88.9083 98.3127 90.4645 99.1467 91.6868L100.914 89.804C100.641 89.3666 100.886 88.5794 101.788 87.2051C102.723 85.7807 103.525 85.216 104.328 85.4134L99.9087 92.1441C100.073 92.3094 100.227 92.4248 100.478 92.5895C102.213 93.7289 104.359 92.7121 106.157 89.9736C108.008 87.155 107.995 84.7487 106.219 83.5829C104.394 82.3842 102.224 83.3712 100.333 86.2501ZM104.756 89.0682C103.894 90.3822 103.205 90.9063 102.418 90.7487L105.422 86.1746C105.859 86.8205 105.652 87.704 104.756 89.0682ZM94.8833 93.7641L96.5988 91.9018L103.218 97.9997L101.503 99.8619L94.8833 93.7641Z" fill="white"/>
<circle cx="59" cy="59" r="4" fill="black"/>
</svg>
